HIERARCHY
ROOT SpineBase
{
  OFFSET 0.000000 0.000000 0.000000
  CHANNELS 6 Xposition Yposition Zposition Zrotation Xrotation Yrotation
  JOINT SpineMid
  {
    OFFSET 0.000000 28.536344 0.000000
    CHANNELS 3 Zrotation Xrotation Yrotation
    JOINT SpineShoulder
    {
      OFFSET -0.045731 21.247150 -0.663454
      CHANNELS 3 Zrotation Xrotation Yrotation
      JOINT Neck
      {
        OFFSET -0.037955 7.060603 -0.491748
        CHANNELS 3 Zrotation Xrotation Yrotation
        JOINT Head
        {
          OFFSET 0.453661 12.647055 1.797440
          CHANNELS 3 Zrotation Xrotation Yrotation
          End Site
          {
            OFFSET 0 0 0
          }
        }
      }
      JOINT ShoulderLeft
      {
        OFFSET -11.790658 -3.373803 -8.326280
        CHANNELS 3 Zrotation Xrotation Yrotation
        JOINT ElbowLeft
        {
          OFFSET -3.701128 -21.926824 -3.382604
          CHANNELS 3 Zrotation Xrotation Yrotation
          JOINT WristLeft
          {
            OFFSET 4.509612 -21.087943 -6.531908
            CHANNELS 3 Zrotation Xrotation Yrotation
            JOINT HandLeft
            {
              OFFSET -0.145682 -5.127274 -0.194869
              CHANNELS 3 Zrotation Xrotation Yrotation
              JOINT HandTipLeft
              {
                OFFSET 0.941473 -5.678835 -0.653918
                CHANNELS 3 Zrotation Xrotation Yrotation
                End Site
                {
                  OFFSET 0 0 0
                }
              }
              JOINT ThumbLeft
              {
                OFFSET 2.760058 1.203278 0.777536
                CHANNELS 3 Zrotation Xrotation Yrotation
                End Site
                {
                  OFFSET 0 0 0
                }
              }
            }
          }
        }
      }
      JOINT ShoulderRight
      {
        OFFSET 11.708184 -3.664746 5.314744
        CHANNELS 3 Zrotation Xrotation Yrotation
        JOINT ElbowRight
        {
          OFFSET 2.198284 -21.954043 1.494393
          CHANNELS 3 Zrotation Xrotation Yrotation
          JOINT WristRight
          {
            OFFSET 3.396242 -21.746214 -3.965175
            CHANNELS 3 Zrotation Xrotation Yrotation
            JOINT HandRight
            {
              OFFSET 0.486617 -5.008144 0.111617
              CHANNELS 3 Zrotation Xrotation Yrotation
              JOINT HandTipRight
              {
                OFFSET 0.383581 -5.753185 -1.427606
                CHANNELS 3 Zrotation Xrotation Yrotation
                End Site
                {
                  OFFSET 0 0 0
                }
              }
              JOINT ThumbRight
              {
                OFFSET 1.136883 -1.225853 -2.167863
                CHANNELS 3 Zrotation Xrotation Yrotation
                End Site
                {
                  OFFSET 0 0 0
                }
              }
            }
          }
        }
      }
    }
  }
  JOINT HipLeft
  {
    OFFSET -4.991816 1.433471 -5.187822
    CHANNELS 3 Zrotation Xrotation Yrotation
    JOINT KneeLeft
    {
      OFFSET -8.153305 -32.496583 1.552464
      CHANNELS 3 Zrotation Xrotation Yrotation
      JOINT AnkleLeft
      {
        OFFSET 1.242539 -32.048329 2.999167
        CHANNELS 3 Zrotation Xrotation Yrotation
        JOINT FootLeft
        {
          OFFSET 4.660314 -4.483201 -3.067540
          CHANNELS 3 Zrotation Xrotation Yrotation
          End Site
          {
            OFFSET 0 0 0
          }
        }
      }
    }
  }
  JOINT HipRight
  {
    OFFSET 4.584692 0.364175 -0.873511
    CHANNELS 3 Zrotation Xrotation Yrotation
    JOINT KneeRight
    {
      OFFSET -5.017630 -33.395110 1.128742
      CHANNELS 3 Zrotation Xrotation Yrotation
      JOINT AnkleRight
      {
        OFFSET 0.479033 -28.258232 4.864114
        CHANNELS 3 Zrotation Xrotation Yrotation
        JOINT FootRight
        {
          OFFSET -2.569356 -5.022046 -6.330130
          CHANNELS 3 Zrotation Xrotation Yrotation
          End Site
          {
            OFFSET 0 0 0
          }
        }
      }
    }
  }
}
MOTION
Frames: 12
Frame Time: 0.033333
24.934339 68.005804 353.604560 -0.000000 0.000000 -24.252036 0.000000 0.000000 24.252036 -0.000000 0.000000 0.000000 -0.000000 0.000000 0.000000 0.000000 0.000000 0.000000 -0.000000 0.000000 0.000000 -0.000000 0.000000 0.000000 -0.000000 0.000000 0.000000 -0.000000 0.000000 0.000000 0.000000 0.000000 0.000000 0.000000 0.000000 0.000000 -0.000000 0.000000 0.000000 -0.000000 0.000000 0.000000 -0.000000 0.000000 0.000000 -0.000000 0.000000 0.000000 0.000000 0.000000 0.000000 0.000000 0.000000 0.000000 0.000000 0.000000 24.252036 -0.000000 0.000000 0.000000 -0.000000 0.000000 0.000000 0.000000 0.000000 0.000000 0.000000 0.000000 24.252036 -0.000000 0.000000 0.000000 -0.000000 0.000000 0.000000 0.000000 0.000000 0.000000
25.001662 68.038737 353.501550 0.161954 0.072773 -24.476250 -0.117249 -0.133333 24.476011 -0.000000 0.000000 0.000000 -0.000000 0.000000 0.000000 0.000000 0.000000 0.000000 -0.000000 0.000000 0.000000 -1.142019 -0.400651 0.264927 2.403628 -0.806833 -0.282461 -1.868383 -1.108428 -0.285688 0.000000 0.000000 0.000000 0.000000 0.000000 0.000000 -0.000000 0.000000 0.000000 0.630385 -1.083948 -0.278514 -6.402260 4.154006 0.729860 5.014813 -7.426297 -0.196419 0.000000 0.000000 0.000000 0.000000 0.000000 0.000000 -0.117249 -0.133333 24.476011 1.727537 0.911745 0.183312 -0.737087 9.746446 9.443017 0.000000 0.000000 0.000000 1.255913 -0.215362 24.618185 -3.253610 1.154079 -0.442134 2.043161 -0.491108 0.351793 0.000000 0.000000 0.000000
25.068983 68.057150 353.423941 0.311530 0.123398 -24.621773 -0.231797 -0.241968 24.620948 -0.000000 0.000000 0.000000 -0.000000 0.000000 0.000000 0.000000 0.000000 0.000000 -0.000000 0.000000 0.000000 -2.105688 -0.754073 0.480047 4.614348 -1.229445 -0.537300 -3.571418 -2.254985 -0.496862 0.000000 0.000000 0.000000 0.000000 0.000000 0.000000 0.197552 -0.822716 -0.067471 0.838332 -1.198427 -0.431680 -10.824657 7.420219 1.658537 8.316499 -13.561535 -0.287363 0.000000 0.000000 0.000000 0.000000 0.000000 0.000000 -0.231797 -0.241968 24.620948 3.102084 1.727348 0.310684 -2.402214 15.910783 15.662191 0.000000 0.000000 0.000000 2.209675 -0.387465 24.880709 -5.797739 2.052454 -0.736249 3.407271 0.083311 0.464367 0.000000 0.000000 0.000000
25.136300 68.061042 353.371733 0.448649 0.151857 -24.686020 -0.344231 -0.325350 24.684448 -0.000000 0.000000 0.000000 -0.000000 0.000000 0.000000 0.000000 0.000000 0.000000 -0.986972 -0.365576 0.210618 -1.906313 -0.685611 0.449669 6.641365 -1.300253 -0.770262 -5.111100 -3.412705 -0.652398 0.000000 0.000000 0.000000 0.000000 0.000000 0.000000 0.198212 -1.102417 -0.094912 1.019709 -1.709095 -0.557694 -13.731449 10.053328 2.565402 10.408074 -18.546643 -0.359238 0.000000 0.000000 0.000000 0.000000 0.000000 0.000000 -0.344231 -0.325350 24.684448 4.043074 2.407084 0.387111 -3.877223 19.332323 19.424013 0.000000 0.000000 0.000000 2.855011 -0.524119 25.032700 -7.635975 2.682611 -0.922607 4.430322 0.247075 0.673093 0.000000 0.000000 0.000000
25.203616 68.050414 353.344924 0.573247 0.158158 -24.667244 -0.454939 -0.382961 24.664933 -0.000000 0.000000 0.000000 -0.000000 0.000000 0.000000 0.000000 0.000000 0.000000 -1.193895 -0.471017 0.258493 -2.306732 -0.829485 0.531687 8.491708 -1.046497 -0.986468 -6.492605 -4.561828 -0.765669 0.000000 0.000000 0.000000 0.000000 0.000000 0.000000 0.133473 -1.294008 -0.118878 1.045084 -2.160606 -0.626235 -15.415511 12.242904 3.343389 11.608098 -22.501696 -0.437923 0.000000 0.000000 0.000000 0.000000 0.000000 0.000000 -1.331597 -0.589744 24.570846 5.366114 2.748102 0.521033 -4.691106 20.831631 21.311657 0.000000 0.000000 0.000000 3.188352 -0.630390 25.069395 -8.774253 3.039008 -1.031071 5.006382 0.497536 0.855163 0.000000 0.000000 0.000000
25.270928 68.025265 353.343517 0.685273 0.142336 -24.564585 -0.564093 -0.414322 24.561694 -0.000000 0.000000 0.000000 -0.120173 -0.809598 0.045316 0.000000 0.000000 0.000000 -1.339799 -0.567982 0.295571 -2.587697 -0.929328 0.580994 10.169819 -0.490873 -1.190707 -7.722146 -5.687363 -0.845656 0.000000 0.000000 0.000000 0.000000 0.000000 0.000000 0.003379 -1.397337 -0.139536 0.915180 -2.553441 -0.639009 -16.051932 14.120400 3.937560 12.110945 -25.522990 -0.528400 0.000000 0.000000 0.000000 0.000000 0.000000 0.000000 -1.528550 -0.624147 24.454397 5.357762 3.033080 0.529714 -4.682333 20.852974 21.642053 0.000000 0.000000 0.000000 3.208177 -0.708239 24.987987 -9.219368 3.120181 -1.080366 5.140532 0.838000 1.009354 0.000000 0.000000 0.000000
25.385294 67.977132 353.398197 0.859814 0.046302 -24.327722 -0.764405 -0.396380 24.324730 -0.000000 0.000000 0.000000 -0.241496 -0.811394 0.061776 0.000000 0.000000 0.000000 -1.398324 -0.758666 0.334181 -2.717773 -0.897387 0.569378 12.429873 0.699246 -1.447828 -9.564485 -7.825161 -1.010289 0.000000 0.000000 0.000000 0.000000 0.000000 0.000000 -0.223390 -1.182619 -0.135864 0.748436 -3.671218 -0.716239 -16.354892 16.666820 4.750071 13.308035 -29.759293 -0.620310 0.000000 0.000000 0.000000 0.000000 0.000000 0.000000 -2.393622 -1.173879 24.225957 5.436663 4.226723 0.443994 -2.532420 17.035683 18.141778 0.000000 0.000000 0.000000 2.014900 -0.591638 24.631229 -7.348912 1.605698 -0.969141 3.480378 1.779275 1.593447 0.000000 0.000000 0.000000
25.466185 67.898365 353.470915 0.966906 -0.048433 -23.971784 -0.903193 -0.348576 23.969445 -0.000000 0.000000 0.000000 -0.336698 -0.776659 0.073494 0.000000 0.000000 0.000000 -1.424692 -0.875167 0.356311 -2.747370 -0.930193 0.532210 14.096659 2.471630 -1.746148 -11.475643 -8.542766 -0.891659 0.000000 0.000000 0.000000 0.000000 0.000000 0.000000 -0.512119 -1.165560 -0.156743 0.304537 -4.024130 -0.636901 -15.188524 17.911154 4.866577 12.129272 -29.307581 -0.668968 0.000000 0.000000 0.000000 0.000000 0.000000 0.000000 -2.323720 -0.882770 23.859841 3.767608 3.380404 0.376950 -3.644751 13.753982 17.028540 0.000000 0.000000 0.000000 0.936704 -0.607598 24.186329 -5.558377 0.880506 -0.811403 2.245907 1.145140 2.336180 0.000000 0.000000 0.000000
25.517896 67.806824 353.547476 1.008000 -0.119797 -23.548443 -0.971922 -0.292898 23.547012 -0.000000 0.000000 0.000000 -0.000000 0.000000 0.000000 0.000000 0.000000 0.000000 -1.393530 -0.904036 0.356294 -2.508618 -0.914880 0.445930 14.843693 3.461394 -1.855884 -11.377848 -9.208529 -0.915488 0.000000 0.000000 0.000000 0.000000 0.000000 0.000000 -0.845015 -1.149275 -0.181088 -0.433366 -3.720713 -0.395454 -12.264912 18.369141 4.315705 8.862413 -28.071250 -0.974359 0.000000 0.000000 0.000000 0.000000 0.000000 0.000000 -2.617316 -1.981843 23.633181 4.413228 4.966928 0.117026 -2.676881 13.281220 16.355563 0.000000 0.000000 0.000000 0.088152 -0.451672 23.670230 -4.204173 0.114395 -0.667324 -2.060935 1.283616 6.743519 0.000000 0.000000 0.000000
25.508111 67.796174 353.556721 0.968295 -0.111167 -23.561694 -0.932010 -0.285161 23.560314 -0.000000 0.000000 0.000000 -0.000000 0.000000 0.000000 0.000000 0.000000 0.000000 -1.355686 -0.797757 0.334060 -2.614298 -0.588772 0.593752 15.894445 4.487512 -2.142344 -11.449121 -9.627464 -0.833526 0.000000 0.000000 0.000000 0.000000 0.000000 0.000000 -1.171391 -1.169002 -0.208815 -1.379582 -2.482509 0.051577 -8.797329 18.938676 3.560483 7.063830 -28.719597 -1.268166 0.000000 0.000000 0.000000 0.000000 0.000000 0.000000 -1.741767 -0.989963 23.583219 1.748278 3.285944 0.125306 -1.033971 2.022247 5.053289 0.000000 0.000000 0.000000 0.437720 -0.693158 23.747607 -4.609697 1.122073 -0.707276 -2.166032 3.304582 5.761004 0.000000 0.000000 0.000000
25.529186 67.753323 353.603261 0.963813 -0.116811 -23.436565 -0.930762 -0.276165 23.435304 -0.000000 0.000000 0.000000 -0.000000 0.000000 0.000000 0.000000 0.000000 0.000000 -1.271454 -0.669342 0.301414 -2.270029 -0.630718 0.508655 15.976247 4.448780 -2.054006 -11.494657 -8.058236 -0.575249 0.000000 0.000000 0.000000 0.000000 0.000000 0.000000 -1.474859 -1.233830 -0.239962 -2.216322 -1.619889 0.427950 -4.858416 17.358183 2.443605 5.038220 -28.142322 -1.574014 0.000000 0.000000 0.000000 0.000000 0.000000 0.000000 -0.930762 -0.276165 23.435304 -0.372717 1.636959 0.033965 6.267946 5.350747 2.753863 0.000000 0.000000 0.000000 0.679917 -1.159362 23.711857 -4.607035 2.589518 -0.701953 1.692080 7.509257 -1.332381 0.000000 0.000000 0.000000
25.567848 67.723740 353.624650 0.989101 -0.079657 -23.516481 -0.938743 -0.321616 23.514534 -0.000000 0.000000 0.000000 -0.000000 0.000000 0.000000 0.000000 0.000000 0.000000 -1.225782 -0.355743 0.245023 -1.526585 -0.964593 0.305107 14.555204 6.424027 -1.999639 -10.556058 -10.240791 -0.734984 0.000000 0.000000 0.000000 0.000000 0.000000 0.000000 -1.703161 -1.323298 -0.268309 -2.692798 -0.751963 0.735792 -2.543755 19.051634 2.253901 4.666228 -28.509516 -1.656336 0.000000 0.000000 0.000000 0.000000 0.000000 0.000000 -0.938743 -0.321616 23.514534 -1.950813 0.766773 -0.139976 16.087981 10.892262 1.080020 0.000000 0.000000 0.000000 1.121818 -1.477693 23.878456 -5.138667 3.694568 -0.739731 6.064161 10.728890 -7.920273 0.000000 0.000000 0.000000
